<svg width="73" height="71" viewBox="0 0 73 71" fill="none" xmlns="http://www.w3.org/2000/svg">
<path d="M72.4294 56.1429V56.1595C72.4304 56.1706 72.4307 56.1817 72.4305 56.1929V64.8354C72.4243 66.226 71.8651 67.5573 70.8757 68.5373C69.8863 69.5172 68.5474 70.0657 67.153 70.0625H31.4939C30.7593 70.0634 30.0325 69.9114 29.3601 69.6163C28.6876 69.3212 28.0844 68.8895 27.5888 68.3486L25.6138 68.3764C25.7597 68.5079 25.8621 68.6806 25.9075 68.8715C25.9528 69.0624 25.9389 69.2626 25.8676 69.4454C25.7962 69.6282 25.6709 69.7852 25.5081 69.8954C25.3454 70.0056 25.1529 70.0638 24.9562 70.0625H10.5038C9.22617 70.0654 7.99957 69.5628 7.09308 68.6649C6.18658 67.7671 5.67421 66.5474 5.66838 65.2733V18.7465C5.66697 18.1165 5.79148 17.4925 6.03464 16.9111C6.27779 16.3296 6.63472 15.8023 7.08455 15.3599L17.1605 5.37927C17.61 4.93256 18.1436 4.57872 18.7305 4.33802C19.3174 4.09733 19.9462 3.97453 20.5808 3.97665H53.7386C55.0166 3.97357 56.2436 4.47621 57.1503 5.37429C58.057 6.27236 58.5695 7.49249 58.5752 8.76693V25.3862C58.5733 25.5744 58.5171 25.758 58.4132 25.9151C58.3092 26.0722 58.1621 26.196 57.9893 26.2717C57.8165 26.3474 57.6255 26.3717 57.4392 26.3418C57.2529 26.3119 57.0792 26.229 56.939 26.1031L54.8204 28.2892C58.4192 28.2892 61.3469 31.1879 61.3469 34.7522V37.4563H67.153C67.8437 37.454 68.5281 37.5873 69.1671 37.8487C69.8061 38.1101 70.3873 38.4945 70.8773 38.9798C71.3674 39.4652 71.7568 40.0421 72.0233 40.6776C72.2898 41.313 72.4282 41.9946 72.4305 42.6834V56.1095C72.4307 56.1206 72.4304 56.1318 72.4294 56.1429Z" fill="#BC9144" fill-opacity="0.15"/>
<path d="M44.0857 6.85968H23.1447C22.8774 6.85968 22.6209 6.9656 22.4319 7.15414C22.2428 7.34267 22.1366 7.59838 22.1366 7.86502C22.1366 8.13165 22.2428 8.38736 22.4319 8.5759C22.6209 8.76443 22.8774 8.87035 23.1447 8.87035H44.0857C44.353 8.87035 44.6094 8.76443 44.7985 8.5759C44.9876 8.38736 45.0938 8.13165 45.0938 7.86502C45.0938 7.59838 44.9876 7.34267 44.7985 7.15414C44.6094 6.9656 44.353 6.85968 44.0857 6.85968Z" fill="#BC9144"/>
<path d="M44.0857 12.7445H23.1447C22.8774 12.7445 22.6209 12.8504 22.4319 13.039C22.2428 13.2275 22.1366 13.4832 22.1366 13.7498C22.1366 14.0165 22.2428 14.2722 22.4319 14.4607C22.6209 14.6493 22.8774 14.7552 23.1447 14.7552H44.0857C44.353 14.7552 44.6094 14.6493 44.7985 14.4607C44.9876 14.2722 45.0938 14.0165 45.0938 13.7498C45.0938 13.4832 44.9876 13.2275 44.7985 13.039C44.6094 12.8504 44.353 12.7445 44.0857 12.7445Z" fill="#BC9144"/>
<path d="M63.3798 34.8116H57.395V32.005C57.393 30.2264 56.6836 28.5212 55.4225 27.2636C54.1613 26.006 52.4515 25.2986 50.668 25.2966H39.3342C37.5507 25.2986 35.8408 26.006 34.5797 27.2636C33.3185 28.5212 32.6092 30.2264 32.6071 32.005V34.8116H26.6223C25.9079 34.8115 25.2004 34.9518 24.5403 35.2245C23.8802 35.4971 23.2805 35.8967 22.7753 36.4005C22.2701 36.9043 21.8693 37.5025 21.5959 38.1607C21.3225 38.819 21.1819 39.5245 21.1819 40.237V63.2287C21.1836 64.6671 21.7573 66.0461 22.7772 67.0633C23.7971 68.0804 25.18 68.6525 26.6223 68.6542H63.3799C64.8223 68.6525 66.2051 68.0804 67.2251 67.0633C68.245 66.0461 68.8187 64.6671 68.8203 63.2287V58.8723C68.8203 58.6056 68.7141 58.3499 68.5251 58.1614C68.336 57.9728 68.0796 57.8669 67.8122 57.8669C67.5449 57.8669 67.2885 57.9728 67.0994 58.1614C66.9103 58.3499 66.8041 58.6056 66.8041 58.8723V63.2287C66.8031 64.1341 66.442 65.002 65.8001 65.6422C65.1581 66.2824 64.2878 66.6425 63.3799 66.6435H26.6223C25.7145 66.6425 24.8441 66.2824 24.2022 65.6422C23.5602 65.002 23.1992 64.1341 23.1981 63.2287V48.9801C24.0066 49.978 25.0196 50.7921 26.1692 51.3679C27.3189 51.9437 28.5787 52.2678 29.8641 52.3186V53.8535C29.8641 54.8279 30.2523 55.7624 30.9432 56.4514C31.6341 57.1404 32.5712 57.5275 33.5483 57.5275C34.5254 57.5275 35.4625 57.1404 36.1534 56.4514C36.8443 55.7624 37.2325 54.8279 37.2325 53.8535V52.3255H52.7697V53.8535C52.7694 54.3362 52.8645 54.8141 53.0495 55.2601C53.2345 55.7061 53.5059 56.1114 53.848 56.4528C54.1901 56.7941 54.5964 57.065 55.0435 57.2497C55.4906 57.4345 55.9698 57.5296 56.4538 57.5296C56.9378 57.5296 57.4171 57.4345 57.8642 57.2497C58.3113 57.065 58.7175 56.7941 59.0597 56.4528C59.4018 56.1114 59.6731 55.7061 59.8581 55.2601C60.0432 54.8141 60.1383 54.3362 60.138 53.8535V52.3186C61.4235 52.2678 62.6832 51.9437 63.8329 51.3679C64.9825 50.7921 65.9955 49.978 66.804 48.9801V54.1723C66.804 54.4389 66.9102 54.6946 67.0993 54.8831C67.2883 55.0717 67.5447 55.1776 67.8121 55.1776C68.0795 55.1776 68.3359 55.0717 68.525 54.8831C68.714 54.6946 68.8202 54.4389 68.8202 54.1723V40.2367C68.8203 39.5243 68.6796 38.8188 68.4062 38.1605C68.1328 37.5023 67.732 36.9042 67.2268 36.4004C66.7216 35.8966 66.1219 35.497 65.4618 35.2244C64.8017 34.9518 64.0942 34.8115 63.3798 34.8116V34.8116ZM34.6233 32.005C34.6248 30.7595 35.1216 29.5654 36.0047 28.6847C36.8878 27.804 38.0852 27.3086 39.3342 27.3072H50.668C51.9169 27.3086 53.1143 27.804 53.9974 28.6847C54.8806 29.5654 55.3773 30.7595 55.3788 32.005V34.8116H53.2794V32.005C53.2786 31.3146 53.0032 30.6527 52.5136 30.1645C52.024 29.6763 51.3603 29.4018 50.668 29.401H39.3342C38.6419 29.4018 37.9782 29.6764 37.4886 30.1645C36.9991 30.6527 36.7237 31.3146 36.7229 32.005V34.8116H34.6233V32.005ZM38.7391 34.8116V32.005C38.7393 31.8476 38.802 31.6968 38.9136 31.5856C39.0252 31.4744 39.1764 31.4118 39.3342 31.4117H50.668C50.8257 31.4118 50.977 31.4744 51.0886 31.5856C51.2002 31.6968 51.2629 31.8476 51.2632 32.005V34.8116H38.7391ZM35.2162 53.8535C35.2162 54.2947 35.0405 54.7177 34.7277 55.0297C34.4149 55.3416 33.9907 55.5169 33.5483 55.5169C33.1059 55.5169 32.6817 55.3416 32.3689 55.0297C32.0561 54.7177 31.8804 54.2947 31.8804 53.8535V50.2596C31.8804 49.8185 32.0561 49.3954 32.3689 49.0835C32.6817 48.7715 33.1059 48.5963 33.5483 48.5963C33.9907 48.5963 34.4149 48.7715 34.7277 49.0835C35.0405 49.3954 35.2162 49.8185 35.2162 50.2596V53.8535ZM58.1218 53.8535C58.122 54.0721 58.079 54.2885 57.9952 54.4905C57.9115 54.6924 57.7886 54.876 57.6337 55.0306C57.4788 55.1852 57.2949 55.3078 57.0924 55.3915C56.89 55.4752 56.673 55.5183 56.4538 55.5183C56.2347 55.5183 56.0177 55.4752 55.8152 55.3915C55.6128 55.3078 55.4288 55.1852 55.2739 55.0306C55.119 54.876 54.9962 54.6924 54.9125 54.4905C54.8287 54.2885 54.7857 54.0721 54.7859 53.8535V51.3305C54.7859 51.327 54.786 51.3236 54.786 51.3202C54.786 51.3169 54.7859 51.3132 54.7859 51.3099V50.2598C54.7857 50.0412 54.8287 49.8248 54.9125 49.6228C54.9962 49.4208 55.119 49.2373 55.2739 49.0827C55.4288 48.9281 55.6128 48.8055 55.8152 48.7218C56.0177 48.6381 56.2347 48.595 56.4538 48.595C56.673 48.595 56.89 48.6381 57.0924 48.7218C57.2949 48.8055 57.4788 48.9281 57.6337 49.0827C57.7886 49.2373 57.9115 49.4208 57.9952 49.6228C58.079 49.8248 58.122 50.0412 58.1218 50.2598V53.8535ZM60.138 50.3059V50.2598C60.138 49.2854 59.7498 48.3509 59.0589 47.6619C58.368 46.9728 57.4309 46.5858 56.4538 46.5858C55.4767 46.5858 54.5397 46.9728 53.8487 47.6619C53.1578 48.3509 52.7697 49.2854 52.7697 50.2598V50.3149H37.2325V50.2598C37.2327 49.7771 37.1376 49.2992 36.9526 48.8532C36.7676 48.4072 36.4963 48.0019 36.1541 47.6605C35.812 47.3191 35.4058 47.0483 34.9586 46.8636C34.5115 46.6788 34.0323 46.5837 33.5483 46.5837C33.0643 46.5837 32.5851 46.6788 32.138 46.8636C31.6908 47.0483 31.2846 47.3191 30.9425 47.6605C30.6003 48.0019 30.329 48.4072 30.144 48.8532C29.959 49.2992 29.8639 49.7771 29.8641 50.2598V50.3059C28.0664 50.2124 26.373 49.4349 25.1329 48.1336C23.8927 46.8323 23.2003 45.1062 23.1981 43.3109V40.2367C23.1981 39.7883 23.2867 39.3443 23.4587 38.93C23.6308 38.5157 23.883 38.1392 24.201 37.8221C24.519 37.5051 24.8965 37.2535 25.3119 37.0819C25.7274 36.9104 26.1727 36.8221 26.6223 36.8221H63.3799C63.8296 36.8221 64.2749 36.9104 64.6904 37.082C65.1058 37.2536 65.4833 37.5051 65.8013 37.8222C66.1193 38.1393 66.3715 38.5157 66.5436 38.9301C66.7156 39.3444 66.8042 39.7884 66.8041 40.2369V43.3109C66.8019 45.1062 66.1095 46.8323 64.8693 48.1336C63.6292 49.4349 61.9358 50.2124 60.138 50.3059L60.138 50.3059Z" fill="#BC9144"/>
<path d="M19.8822 66.6434H4.98531C4.19814 66.6425 3.44346 66.3303 2.88684 65.7752C2.33022 65.2201 2.01712 64.4675 2.01624 63.6825V15.3926C2.01608 15.1783 2.03911 14.9645 2.08492 14.7551H11.2594C12.1804 14.7541 13.0634 14.3888 13.7146 13.7393C14.3659 13.0899 14.7322 12.2093 14.7333 11.2909V2.14168C14.9433 2.09606 15.1576 2.0731 15.3726 2.07319H49.5525C50.3397 2.07407 51.0944 2.38631 51.651 2.94139C52.2076 3.49648 52.5207 4.24908 52.5216 5.03409V22.2832C52.5216 22.5498 52.6278 22.8055 52.8169 22.9941C53.0059 23.1826 53.2623 23.2885 53.5297 23.2885C53.7971 23.2885 54.0535 23.1826 54.2425 22.9941C54.4316 22.8055 54.5378 22.5498 54.5378 22.2832V5.03409C54.5363 3.716 54.0106 2.45233 53.076 1.5203C52.1414 0.588273 50.8742 0.0640062 49.5525 0.062519H15.3724C14.7175 0.0607084 14.0687 0.188461 13.4636 0.438381C12.8584 0.688302 12.309 1.05543 11.8472 1.51851L1.46002 11.8772C0.995667 12.3378 0.62753 12.8856 0.37692 13.4891C0.126309 14.0925 -0.00179579 14.7395 1.90152e-05 15.3926V63.6825C0.00151126 65.0006 0.527225 66.2643 1.46183 67.1963C2.39643 68.1283 3.66359 68.6526 4.98531 68.6541H19.8822C20.0146 68.6541 20.1457 68.6281 20.268 68.5775C20.3903 68.527 20.5014 68.453 20.595 68.3596C20.6886 68.2663 20.7629 68.1554 20.8136 68.0335C20.8642 67.9115 20.8903 67.7808 20.8903 67.6487C20.8903 67.5167 20.8642 67.386 20.8136 67.264C20.7629 67.142 20.6886 67.0312 20.595 66.9379C20.5014 66.8445 20.3903 66.7704 20.268 66.7199C20.1457 66.6694 20.0146 66.6434 19.8822 66.6434V66.6434ZM12.717 3.49499V11.2909C12.7165 11.6763 12.5628 12.0457 12.2895 12.3182C12.0162 12.5907 11.6457 12.744 11.2592 12.7444H3.44197L12.717 3.49499Z" fill="#BC9144"/>
</svg>
