<svg width="73" height="71" viewBox="0 0 73 71" fill="none" xmlns="http://www.w3.org/2000/svg">
<path d="M25.9933 43.7413H22.0496V38.9014H26.3188C26.5694 38.9011 26.8095 38.8015 26.9866 38.6243C27.1637 38.4472 27.2631 38.2071 27.2631 37.9567C27.2631 37.7063 27.1637 37.4662 26.9866 37.2891C26.8095 37.112 26.5694 37.0123 26.3188 37.012H22.0496V34.1785C22.0498 34.0543 22.0254 33.9314 21.978 33.8166C21.9306 33.7019 21.8609 33.5976 21.7731 33.5097C21.6853 33.4219 21.5811 33.3522 21.4663 33.3047C21.3515 33.2571 21.2285 33.2327 21.1043 33.2327C20.98 33.2327 20.857 33.2571 20.7422 33.3047C20.6274 33.3522 20.5232 33.4219 20.4354 33.5097C20.3476 33.5976 20.278 33.7019 20.2305 33.8166C20.1831 33.9314 20.1587 34.0543 20.1589 34.1785V37.012H16.8369V26.1006C16.8393 25.9379 16.8091 25.7764 16.7482 25.6255C16.6873 25.4746 16.5969 25.3374 16.4822 25.2219C16.3675 25.1064 16.2309 25.0149 16.0804 24.9529C15.9299 24.8908 15.7685 24.8594 15.6057 24.8605H5.91042C5.13022 24.8605 4.51825 25.5354 4.51825 26.3979V67.2062C4.51825 68.0687 5.13022 68.7435 5.91042 68.7435H25.8714C26.6394 68.7435 27.2636 68.0541 27.2636 67.2062V44.9814C27.259 44.6489 27.1227 44.3317 26.8847 44.0993C26.6466 43.8669 26.3261 43.7382 25.9933 43.7413ZM16.8369 38.9014H20.1589V43.7413H16.8369V38.9014Z" fill="#BC9144" fill-opacity="0.15"/>
<path d="M61.9787 35.1887V54.5426H65.4483C66.8463 54.5426 67.9833 55.633 67.9833 56.9743V63.2929H69.0879C71.0298 63.2929 72.6094 64.8116 72.6094 66.68V68.4448C72.6004 68.882 72.4183 69.2978 72.1029 69.601C71.7876 69.9042 71.3648 70.0701 70.9272 70.0622H44.4672C44.0292 70.0704 43.6058 69.9048 43.2897 69.6016C42.9737 69.2985 42.7908 68.8825 42.7811 68.4448V66.68C42.7811 64.8116 44.3634 63.2928 46.3065 63.2928H47.4111V56.9743C47.4111 55.6329 48.5469 54.5426 49.9422 54.5426H53.0977V15.8323H51.1364C50.7049 15.84 50.288 15.6764 49.9771 15.3774C49.6661 15.0784 49.4865 14.6685 49.4775 14.2373V14.1487H27.9253V17.4871L31.6506 21.2965H32.567C32.983 21.2887 33.3852 21.4461 33.6854 21.734C33.9856 22.0219 34.1594 22.417 34.1687 22.8327V27.3627C34.16 27.7789 33.9865 28.1747 33.6863 28.4634C33.386 28.752 32.9836 28.91 32.567 28.9026H21.2678C20.8517 28.9096 20.4498 28.7515 20.1503 28.4628C19.8507 28.1741 19.678 27.7785 19.6699 27.3627V22.8327C19.6786 22.4175 19.8516 22.0226 20.1511 21.7346C20.4507 21.4466 20.8522 21.2891 21.2678 21.2965H22.1881L25.9121 17.4871V14.1474H21.1224C20.1048 14.1474 19.2779 13.4293 19.2779 12.545V7.21942C19.2779 6.33514 20.1048 5.61699 21.1224 5.61699H49.4775V5.52832C49.4862 5.097 49.6657 4.68672 49.9767 4.38749C50.2877 4.08826 50.7047 3.9245 51.1364 3.93214H63.94C64.3717 3.9245 64.7887 4.08826 65.0997 4.38749C65.4107 4.68672 65.5902 5.097 65.5989 5.52832V5.61699H70.8156C71.8306 5.61699 72.6549 6.33514 72.6549 7.21943V12.545C72.6525 12.7455 72.6096 12.9436 72.5286 13.1271C72.4477 13.3106 72.3303 13.4759 72.1837 13.6129C72.1733 13.6241 72.1629 13.6366 72.1526 13.6478C72.1028 13.6971 72.0479 13.7411 71.989 13.779C71.6464 14.0222 71.2359 14.1515 70.8156 14.1487H65.5989V14.2373C65.5899 14.6685 65.4103 15.0784 65.0993 15.3774C64.7884 15.6764 64.3715 15.84 63.94 15.8323H61.9787V35.1887Z" fill="#BC9144" fill-opacity="0.15"/>
<path d="M23.0837 36.7609C23.3492 36.7609 23.6038 36.6555 23.7916 36.4678C23.9794 36.2802 24.0848 36.0258 24.0848 35.7604C24.0848 35.4951 23.9794 35.2406 23.7916 35.053C23.6038 34.8654 23.3492 34.76 23.0837 34.76H18.5643V31.7597C18.5643 31.4944 18.4588 31.2399 18.271 31.0523C18.0833 30.8646 17.8286 30.7592 17.5631 30.7592C17.2976 30.7592 17.0429 30.8646 16.8552 31.0523C16.6674 31.2399 16.5619 31.4944 16.5619 31.7597V34.76H13.0436V23.2062C13.0462 23.0341 13.0143 22.8631 12.9499 22.7034C12.8855 22.5436 12.7898 22.3984 12.6684 22.2761C12.547 22.1538 12.4025 22.057 12.2432 21.9913C12.0839 21.9256 11.9131 21.8924 11.7407 21.8935H1.47465C0.647821 21.8935 0 22.6089 0 23.5221V66.7313C0 67.6445 0.647821 68.3599 1.47465 68.3599H22.6102C23.4233 68.3599 24.0848 67.6293 24.0848 66.7313V56.3582C24.0848 56.0929 23.9793 55.8384 23.7916 55.6508C23.6038 55.4632 23.3492 55.3578 23.0837 55.3578C22.8181 55.3578 22.5635 55.4632 22.3757 55.6508C22.188 55.8384 22.0825 56.0929 22.0825 56.3582V66.359H2.00246V23.8944H11.0414V26.4121H7.65958C7.39405 26.4121 7.1394 26.5175 6.95165 26.7051C6.76389 26.8927 6.65841 27.1472 6.65841 27.4125C6.65841 27.6779 6.76389 27.9323 6.95165 28.12C7.1394 28.3076 7.39405 28.413 7.65958 28.413H11.0412V32.0458H8.00705C7.87548 32.0457 7.74517 32.0714 7.62357 32.1216C7.50198 32.1719 7.39147 32.2455 7.29839 32.3384C7.2053 32.4314 7.13145 32.5417 7.08107 32.6631C7.03068 32.7846 7.00475 32.9148 7.00475 33.0463C7.00475 33.1777 7.03068 33.3079 7.08107 33.4294C7.13145 33.5508 7.2053 33.6612 7.29839 33.7541C7.39147 33.847 7.50198 33.9207 7.62357 33.9709C7.74517 34.0211 7.87548 34.0469 8.00705 34.0467H11.0412V42.8866C11.0412 43.0179 11.0671 43.148 11.1174 43.2694C11.1677 43.3908 11.2415 43.5011 11.3344 43.594C11.4274 43.6869 11.5378 43.7606 11.6593 43.8109C11.7807 43.8612 11.9109 43.887 12.0424 43.887H22.0825V51.7065C22.0823 51.838 22.1081 51.9682 22.1584 52.0897C22.2086 52.2112 22.2823 52.3217 22.3753 52.4147C22.4683 52.5077 22.5787 52.5815 22.7003 52.6318C22.8218 52.6822 22.9521 52.7081 23.0837 52.7081C23.2152 52.7081 23.3455 52.6822 23.4671 52.6318C23.5886 52.5815 23.699 52.5077 23.792 52.4147C23.885 52.3217 23.9587 52.2112 24.0089 52.0897C24.0592 51.9682 24.085 51.838 24.0848 51.7065V43.1987C24.0796 42.8468 23.9353 42.5112 23.6833 42.2653C23.4314 42.0193 23.0923 41.883 22.7401 41.8861H18.5643V36.7609L23.0837 36.7609ZM16.5619 41.8861H13.0436V36.7609H16.5618V41.8861H16.5619Z" fill="#BC9144"/>
<path d="M57.2238 46.3346V12.3528H59.1738C59.6111 12.3525 60.0304 12.1788 60.3398 11.8699C60.6491 11.561 60.8232 11.1421 60.8238 10.7051V10.6131H66.0115C66.4317 10.6156 66.8413 10.4816 67.1787 10.2313C67.2373 10.1922 67.2915 10.147 67.3406 10.0965C67.352 10.0849 67.3617 10.0723 67.3724 10.0603C67.5192 9.91639 67.6362 9.74494 67.7166 9.55578C67.797 9.36662 67.8393 9.16347 67.8411 8.95796V3.45736C67.8411 2.54455 67.0204 1.80208 66.0115 1.80208H60.824V1.71017C60.8233 1.27317 60.6492 0.854278 60.3399 0.545385C60.0306 0.236493 59.6112 0.0628309 59.1739 0.0625H46.4414C46.0041 0.062825 45.5847 0.23648 45.2753 0.54537C44.966 0.85426 44.7919 1.27316 44.7912 1.71017V1.80208H16.5933C15.5824 1.80208 14.76 2.54454 14.76 3.45736V8.95783C14.76 9.87051 15.5824 10.613 16.5933 10.613H21.3571V14.0619L17.6535 17.9955H16.7385C16.3174 17.9958 15.9136 18.163 15.6157 18.4605C15.3178 18.758 15.1501 19.1614 15.1495 19.5822V24.2606C15.1496 24.6819 15.317 25.086 15.6149 25.3841C15.9128 25.6823 16.3169 25.8502 16.7385 25.851H27.9746C28.3967 25.8507 28.8015 25.6831 29.1001 25.3849C29.3987 25.0868 29.5668 24.6824 29.5675 24.2606V19.5822C29.5663 19.1609 29.398 18.7572 29.0993 18.4597C28.8007 18.1622 28.3962 17.9953 27.9746 17.9955H27.0634L23.3596 14.0619V10.6131H44.7913V10.7051C44.792 11.1422 44.9661 11.5611 45.2755 11.87C45.5848 12.1788 46.0042 12.3525 46.4415 12.3528H48.3914V52.3313H45.2539C44.587 52.3316 43.9475 52.5963 43.4757 53.0672C43.0039 53.5381 42.7382 54.1767 42.7371 54.8431V61.3683H41.6386C40.7099 61.3686 39.8192 61.7371 39.1619 62.3928C38.5047 63.0485 38.1346 63.9379 38.1328 64.866V66.6894C38.134 67.1329 38.3112 67.5579 38.6256 67.871C38.94 68.1842 39.3659 68.3599 39.8098 68.3597H66.1224C66.5658 68.3594 66.9909 68.1834 67.3046 67.8702C67.6182 67.5571 67.7947 67.1324 67.7954 66.6894V64.866C67.7941 63.9385 67.4247 63.0493 66.7682 62.3936C66.1118 61.7379 65.2218 61.3692 64.2936 61.3683H63.1951V54.8431C63.1934 54.1762 62.927 53.5372 62.4545 53.0663C61.9819 52.5955 61.3417 52.3311 60.6743 52.3313H57.2238V46.3346L57.2238 46.3346ZM65.8389 3.80338V7.24493L62.2914 3.80325L65.8389 3.80338ZM60.824 5.16826L64.3737 8.61221H60.824V5.16826ZM16.7623 8.61168V3.80298H17.3174L22.2725 8.61181L16.7623 8.61168ZM27.565 19.9965V23.8503H17.1517V19.9965H27.565ZM24.3139 17.9956H20.4027L22.3583 15.9186L24.3139 17.9956ZM20.1914 3.80298H29.2899L24.7407 8.21803L20.1914 3.80298ZM30.9256 8.61221L27.2087 8.61208L31.7579 4.19716L36.3072 8.61221H30.9256ZM34.2257 3.80298H43.3244L38.775 8.21803L34.2257 3.80298ZM42.8983 8.61221H41.2429L44.7912 5.1688V8.61221H42.8983ZM60.6742 54.3323C60.8107 54.3315 60.942 54.3849 61.0392 54.4807C61.1364 54.5764 61.1916 54.7068 61.1927 54.8432V61.3684H55.3636C55.0981 61.3684 54.8435 61.4738 54.6557 61.6615C54.4679 61.8491 54.3625 62.1035 54.3625 62.3689C54.3625 62.6342 54.4679 62.8887 54.6557 63.0763C54.8435 63.2639 55.0981 63.3693 55.3636 63.3693H64.2935C64.6908 63.3695 65.0719 63.5273 65.353 63.8079C65.6341 64.0885 65.7923 64.4691 65.793 64.8661V66.3589H40.1351V64.8661C40.1363 64.4686 40.2953 64.0877 40.5771 63.8071C40.859 63.5265 41.2407 63.369 41.6386 63.3693H50.515C50.7806 63.3693 51.0352 63.2639 51.223 63.0763C51.4107 62.8887 51.5162 62.6342 51.5162 62.3689C51.5162 62.1035 51.4107 61.8491 51.223 61.6615C51.0352 61.4738 50.7806 61.3684 50.515 61.3684H44.7394V54.8432C44.7416 54.7079 44.7966 54.5787 44.8927 54.4833C44.9888 54.3879 45.1184 54.3337 45.2539 54.3323H60.6742ZM54.8241 18.349L50.3937 22.8873V13.8105L54.8241 18.349ZM51.7677 12.3528H55.2215V15.8908L51.7677 12.3528ZM55.2215 20.8072V29.8838L50.791 25.3453L55.2215 20.8072ZM54.8241 32.3421L50.3937 36.8805V27.8036L54.8241 32.3421ZM55.2215 34.8004V43.8771L50.7911 39.3387L55.2215 34.8004ZM54.8241 46.3354L50.3937 50.8737V41.797L54.8241 46.3354ZM55.2215 48.7936V52.3314H51.7677L55.2215 48.7936ZM56.2226 10.3519H46.7934V2.06341H58.8215V10.3519H56.2226Z" fill="#BC9144"/>
<path d="M19.6847 43.0863C19.6846 42.6902 19.5273 42.3103 19.2473 42.03C18.9673 41.7497 18.5875 41.5918 18.1911 41.5909H5.89759C5.50071 41.5912 5.12015 41.7488 4.83941 42.0292C4.55867 42.3095 4.40068 42.6897 4.40012 43.0863V47.167C4.40068 47.5636 4.55866 47.9438 4.8394 48.2242C5.12014 48.5045 5.50071 48.6621 5.89759 48.6624H18.1911C18.5875 48.6616 18.9673 48.5037 19.2474 48.2234C19.5274 47.943 19.6847 47.5631 19.6847 47.167V43.0863ZM11.043 46.6615H6.40245V43.5918H11.0432V46.6615H11.043ZM17.6824 46.6615H13.0454V43.5918H17.6822V46.6615H17.6824Z" fill="#BC9144"/>
<path d="M18.191 41.5911H5.89759C5.50071 41.5913 5.12014 41.7489 4.8394 42.0293C4.55866 42.3096 4.40068 42.6898 4.40012 43.0864V47.1672C4.40071 47.5637 4.5587 47.9439 4.83944 48.2242C5.12018 48.5045 5.50073 48.6621 5.89759 48.6624H18.1911C18.5875 48.6616 18.9673 48.5037 19.2473 48.2234C19.5273 47.9431 19.6846 47.5632 19.6847 47.1672V43.0864C19.6846 42.6903 19.5273 42.3104 19.2473 42.0301C18.9672 41.7497 18.5874 41.5919 18.191 41.5911L18.191 41.5911ZM11.043 46.6615H6.40245V43.592H11.0432V46.6615H11.043ZM17.6824 46.6615H13.0454V43.592H17.6822V46.6615H17.6824Z" fill="#BC9144"/>
</svg>
