<svg width="70" height="71" viewBox="0 0 70 71" fill="none" xmlns="http://www.w3.org/2000/svg">
<path d="M68.5993 70.0625H6.50077C5.29288 70.0625 5.29288 68.1786 6.50077 68.1786H7.80567V23.9058C7.80473 23.4909 7.96861 23.0925 8.26134 22.7982C8.55406 22.5039 8.9517 22.3377 9.36693 22.3361H27.0839L27.0825 17.5121C27.0825 17.499 27.081 17.4874 27.081 17.4743V12.1557C27.0804 11.741 27.2444 11.3429 27.5371 11.0489C27.8298 10.7549 28.2273 10.589 28.6423 10.5875H31.1421V7.37244C31.1417 6.95779 31.3058 6.55989 31.5984 6.26593C31.8911 5.97198 32.2884 5.80594 32.7033 5.8042H42.6401C43.0553 5.80563 43.4529 5.97153 43.7458 6.26551C44.0388 6.55949 44.2031 6.95756 44.2028 7.37244V10.5875H46.6997C47.1148 10.5887 47.5124 10.7546 47.8051 11.0486C48.0979 11.3427 48.2618 11.7409 48.2609 12.1557V28.9844H50.5261V25.7126C50.5258 25.2978 50.6901 24.8997 50.983 24.6057C51.276 24.3117 51.6736 24.1458 52.0888 24.1444H53.3445V20.7737C53.3436 20.3589 53.5075 19.9607 53.8003 19.6667C54.093 19.3726 54.4907 19.2067 54.9057 19.2055H56.1194V12.259C56.1194 11.0457 57.9935 11.0457 57.9935 12.259V19.2055H59.2086C59.6236 19.207 60.0211 19.3729 60.3138 19.6669C60.6065 19.9609 60.7705 20.359 60.7699 20.7737V24.1444H61.9589C62.3739 24.1459 62.7714 24.3118 63.0641 24.6059C63.3568 24.8999 63.5208 25.2979 63.5202 25.7126V28.9844H66.0373C66.4525 28.9858 66.8501 29.1517 67.1431 29.4457C67.436 29.7397 67.6003 30.1377 67.6 30.5526V68.1786H68.5993C69.8072 68.1786 69.8072 70.0625 68.5993 70.0625Z" fill="#BC9144" fill-opacity="0.15"/>
<path d="M68.5993 70.0625H6.50077C5.29288 70.0625 5.29288 68.1786 6.50077 68.1786H7.80567V23.9058C7.80473 23.4909 7.96861 23.0925 8.26134 22.7982C8.55406 22.5039 8.9517 22.3377 9.36693 22.3361H27.0839L27.0825 17.5121C27.0825 17.499 27.081 17.4874 27.081 17.4743V12.1557C27.0804 11.741 27.2444 11.3429 27.5371 11.0489C27.8298 10.7549 28.2273 10.589 28.6423 10.5875H31.1421V7.37244C31.1417 6.95779 31.3058 6.55989 31.5984 6.26593C31.8911 5.97198 32.2884 5.80594 32.7033 5.8042H42.6401C43.0553 5.80563 43.4529 5.97153 43.7458 6.26551C44.0388 6.55949 44.2031 6.95756 44.2028 7.37244V10.5875H46.6997C47.1148 10.5887 47.5124 10.7546 47.8051 11.0486C48.0979 11.3427 48.2618 11.7409 48.2609 12.1557V28.9844H50.5261V25.7126C50.5258 25.2978 50.6901 24.8997 50.983 24.6057C51.276 24.3117 51.6736 24.1458 52.0888 24.1444H53.3445V20.7737C53.3436 20.3589 53.5075 19.9607 53.8003 19.6667C54.093 19.3726 54.4907 19.2067 54.9057 19.2055H56.1194V12.259C56.1194 11.0457 57.9935 11.0457 57.9935 12.259V19.2055H59.2086C59.6236 19.207 60.0211 19.3729 60.3138 19.6669C60.6065 19.9609 60.7705 20.359 60.7699 20.7737V24.1444H61.9589C62.3739 24.1459 62.7714 24.3118 63.0641 24.6059C63.3568 24.8999 63.5208 25.2979 63.5202 25.7126V28.9844H66.0373C66.4525 28.9858 66.8501 29.1517 67.1431 29.4457C67.436 29.7397 67.6003 30.1377 67.6 30.5526V68.1786H68.5993C69.8072 68.1786 69.8072 70.0625 68.5993 70.0625Z" fill="#BC9144" fill-opacity="0.15"/>
<path d="M39.1467 19.1602H27.833C26.5712 19.1602 26.5712 21.1155 27.833 21.1155H39.1467C40.4085 21.1155 40.4085 19.1602 39.1467 19.1602Z" fill="#BC9144"/>
<path d="M39.1467 28.6675H27.833C26.5712 28.6675 26.5712 30.6229 27.833 30.6229H39.1467C40.4085 30.6229 40.4085 28.6675 39.1467 28.6675Z" fill="#BC9144"/>
<path d="M39.1467 38.1625H27.833C26.5712 38.1625 26.5712 40.1179 27.833 40.1179H39.1467C40.4085 40.1179 40.4085 38.1625 39.1467 38.1625Z" fill="#BC9144"/>
<path d="M39.1467 47.6569H27.833C26.5712 47.6569 26.5712 49.6123 27.833 49.6123H39.1467C40.4085 49.6123 40.4085 47.6569 39.1467 47.6569Z" fill="#BC9144"/>
<path d="M39.1467 57.1511H27.833C26.5712 57.1511 26.5712 59.1065 27.833 59.1065H39.1467C40.4085 59.1065 40.4085 57.1511 39.1467 57.1511Z" fill="#BC9144"/>
<path d="M49.5846 30.697C49.5846 29.436 47.6279 29.436 47.6279 30.697V33.9563C47.6279 35.2172 49.5846 35.2172 49.5846 33.9563V30.697Z" fill="#BC9144"/>
<path d="M54.6721 30.697C54.6721 29.436 52.7153 29.436 52.7153 30.697V33.9563C52.7153 35.2172 54.6721 35.2172 54.6721 33.9563V30.697Z" fill="#BC9144"/>
<path d="M49.5846 38.5106C49.5846 37.2496 47.6279 37.2496 47.6279 38.5106V41.7635C47.6279 43.0244 49.5846 43.0244 49.5846 41.7635V38.5106Z" fill="#BC9144"/>
<path d="M54.6721 38.5106C54.6721 37.2496 52.7153 37.2496 52.7153 38.5106V41.7635C52.7153 43.0244 54.6721 43.0244 54.6721 41.7635V38.5106Z" fill="#BC9144"/>
<path d="M48.6062 45.3409C48.4777 45.3409 48.3505 45.3662 48.2318 45.4153C48.1131 45.4645 48.0053 45.5365 47.9144 45.6273C47.8236 45.7181 47.7515 45.8259 47.7023 45.9445C47.6532 46.0631 47.6279 46.1902 47.6279 46.3186V49.5744C47.6279 50.8353 49.5846 50.8353 49.5846 49.5744V46.3186C49.5846 46.1902 49.5593 46.0631 49.5101 45.9445C49.461 45.8259 49.3889 45.7181 49.2981 45.6273C49.2072 45.5365 49.0993 45.4645 48.9806 45.4153C48.8619 45.3662 48.7347 45.3409 48.6062 45.3409Z" fill="#BC9144"/>
<path d="M53.6937 45.3409C53.5652 45.3409 53.438 45.3662 53.3193 45.4153C53.2006 45.4645 53.0927 45.5365 53.0019 45.6273C52.911 45.7181 52.839 45.8259 52.7898 45.9445C52.7406 46.0631 52.7153 46.1902 52.7153 46.3186V49.5744C52.7153 50.8353 54.6721 50.8353 54.6721 49.5744V46.3186C54.6721 46.1902 54.6468 46.0631 54.5976 45.9445C54.5484 45.8259 54.4764 45.7181 54.3855 45.6273C54.2947 45.5365 54.1868 45.4645 54.0681 45.4153C53.9494 45.3662 53.8222 45.3409 53.6937 45.3409Z" fill="#BC9144"/>
<path d="M59.7595 30.697C59.7595 29.436 57.8028 29.436 57.8028 30.697V33.9563C57.8028 35.2172 59.7595 35.2172 59.7595 33.9563V30.697Z" fill="#BC9144"/>
<path d="M59.7595 38.5106C59.7595 37.2496 57.8028 37.2496 57.8028 38.5106V41.7635C57.8028 43.0244 59.7595 43.0244 59.7595 41.7635V38.5106Z" fill="#BC9144"/>
<path d="M58.7812 45.3409C58.6527 45.3409 58.5254 45.3662 58.4067 45.4153C58.288 45.4645 58.1802 45.5365 58.0893 45.6273C57.9985 45.7181 57.9264 45.8259 57.8773 45.9445C57.8281 46.0631 57.8028 46.1902 57.8028 46.3186V49.5744C57.8028 50.8353 59.7595 50.8353 59.7595 49.5744V46.3186C59.7595 46.1902 59.7342 46.0631 59.6851 45.9445C59.6359 45.8259 59.5638 45.7181 59.473 45.6273C59.3821 45.5365 59.2743 45.4645 59.1556 45.4153C59.0369 45.3662 58.9096 45.3409 58.7812 45.3409Z" fill="#BC9144"/>
<path d="M65.7791 64.8512H64.7355V60.206C64.7355 58.945 62.7788 58.945 62.7788 60.206V64.8512H58.0169V55.5311C58.0164 55.0991 57.8445 54.6849 57.5388 54.3794C57.2331 54.0739 56.8186 53.9021 56.3863 53.9016H51.0013C50.5689 53.9021 50.1545 54.0739 49.8488 54.3794C49.5431 54.6849 49.3711 55.0991 49.3707 55.5311V64.8512H44.5464L44.5463 58.1097L44.5458 26.0952H62.7788V55.9217C62.7788 57.1827 64.7355 57.1827 64.7355 55.9217V25.7693C64.735 25.3373 64.5631 24.9231 64.2574 24.6176C63.9517 24.3121 63.5372 24.1403 63.1049 24.1398H60.477V20.742C60.4766 20.3099 60.3046 19.8957 59.9989 19.5902C59.6932 19.2848 59.2787 19.1129 58.8464 19.1125H57.6051V15.6114C57.6046 15.1794 57.4327 14.7652 57.127 14.4597C56.8213 14.1542 56.4068 13.9824 55.9745 13.9819H54.7068V6.76728C54.7068 5.50631 52.75 5.50631 52.75 6.76728V13.9819H51.4823C51.05 13.9824 50.6356 14.1542 50.3299 14.4597C50.0242 14.7652 49.8522 15.1794 49.8518 15.6114V19.1125H48.541C48.1087 19.1129 47.6942 19.2848 47.3885 19.5903C47.0828 19.8957 46.9109 20.3099 46.9104 20.742V24.1398H44.5454V6.66C44.5449 6.22798 44.373 5.81378 44.0673 5.50829C43.7616 5.20281 43.3471 5.03098 42.9148 5.03051H40.3078V1.692C40.3073 1.25997 40.1354 0.845772 39.8297 0.540284C39.524 0.234796 39.1095 0.0629672 38.6772 0.0625L28.3026 0.0625C27.8703 0.0629672 27.4558 0.234796 27.1502 0.540284C26.8445 0.845772 26.6725 1.25997 26.672 1.692V5.0305H24.0631C23.6308 5.03097 23.2163 5.2028 22.9106 5.50829C22.6049 5.81377 22.4329 6.22797 22.4325 6.66V12.1836C22.4325 12.1971 22.4339 12.2102 22.4346 12.2236L22.4347 17.2348H3.9382C3.50588 17.2352 3.0914 17.4071 2.78571 17.7125C2.48001 18.018 2.30807 18.4322 2.3076 18.8643V27.9336C2.3076 29.1946 4.26432 29.1946 4.26432 27.9336V19.1902H22.434V64.8512H4.26432V32.4888C4.26432 31.2278 2.3076 31.2278 2.3076 32.4888V64.8512H0.946373C-0.315458 64.8512 -0.315458 66.8066 0.946373 66.8066H65.7791C67.0409 66.8066 67.0409 64.8512 65.7791 64.8512ZM51.8086 15.9373H55.6485V19.1109H51.8086V15.9373ZM48.8673 21.0679H58.5203V24.1339H48.8673V21.0679ZM28.6286 2.01789H38.3509V5.0305H28.6286V2.01789H28.6286ZM27.6503 6.9859H42.5837V11.2059H24.391L24.3909 6.9859H27.6503ZM24.3912 13.1613H42.5888L42.5891 25.7678L42.5889 25.7693L42.5896 64.8512H24.3921L24.3912 13.1613ZM51.3274 55.857H56.0602V64.8512H51.3274V55.857Z" fill="#BC9144"/>
<path d="M8.16692 44.5104H10.8728C11.3051 44.51 11.7196 44.3381 12.0253 44.0326C12.331 43.7271 12.5029 43.313 12.5034 42.8809V24.0058C12.5029 23.5738 12.331 23.1596 12.0253 22.8541C11.7196 22.5486 11.3051 22.3767 10.8728 22.3763H8.16692C7.7346 22.3767 7.32012 22.5486 7.01442 22.8541C6.70873 23.1596 6.53678 23.5738 6.53632 24.0058V42.8809C6.53681 43.3129 6.70876 43.7271 7.01445 44.0326C7.32014 44.3381 7.7346 44.5099 8.16692 44.5104ZM8.49304 24.3317H10.5467V42.555H8.49304V24.3317Z" fill="#BC9144"/>
<path d="M14.4344 60.028C14.4349 60.46 14.6069 60.8742 14.9126 61.1797C15.2183 61.4852 15.6327 61.657 16.065 61.6575H18.7985C19.2308 61.657 19.6453 61.4852 19.951 61.1797C20.2566 60.8742 20.4286 60.46 20.4291 60.028V41.153C20.4286 40.721 20.2566 40.3068 19.951 40.0013C19.6453 39.6958 19.2308 39.524 18.7985 39.5235H16.065C15.6327 39.524 15.2183 39.6958 14.9126 40.0013C14.6069 40.3068 14.4349 40.721 14.4344 41.153V60.028ZM16.3912 41.4789H18.4723V59.7021H16.3912V41.4789Z" fill="#BC9144"/>
<path d="M16.065 36.3781H18.7985C19.2308 36.3776 19.6453 36.2058 19.951 35.9003C20.2566 35.5948 20.4286 35.1806 20.4291 34.7486V32.1322C20.4286 31.7002 20.2566 31.286 19.951 30.9805C19.6453 30.675 19.2308 30.5032 18.7985 30.5027H16.065C15.6327 30.5032 15.2183 30.675 14.9126 30.9805C14.6069 31.286 14.4349 31.7002 14.4344 32.1322V34.7486C14.435 35.1806 14.6069 35.5947 14.9126 35.9002C15.2183 36.2057 15.6327 36.3775 16.065 36.3781ZM16.3912 32.458H18.4723V34.4225H16.3912V32.458Z" fill="#BC9144"/>
<path d="M6.53632 51.8993C6.53678 52.3313 6.70873 52.7455 7.01442 53.051C7.32012 53.3565 7.7346 53.5283 8.16692 53.5288H10.8728C11.3051 53.5283 11.7196 53.3565 12.0253 53.051C12.331 52.7455 12.5029 52.3313 12.5034 51.8993V49.2956C12.5029 48.8636 12.331 48.4494 12.0253 48.1439C11.7196 47.8384 11.3051 47.6666 10.8728 47.6661H8.16692C7.7346 47.6666 7.32012 47.8384 7.01442 48.1439C6.70873 48.4494 6.53678 48.8636 6.53632 49.2956V51.8993ZM8.49304 49.6215H10.5467V51.5734H8.49304V49.6215Z" fill="#BC9144"/>
</svg>
